<svg width="27" height="29" viewBox="0 0 27 29" fill="none" xmlns="http://www.w3.org/2000/svg">
<path d="M25.1244 10.3587L24.5573 24.4961C24.509 25.7069 23.8898 26.8545 22.831 27.6954C21.7722 28.5363 20.3573 29.0043 18.8865 29H8.11205C6.64222 29.0043 5.22811 28.537 4.1695 27.6971C3.1109 26.8572 2.49102 25.7108 2.44127 24.5008L1.87419 10.3587C1.86178 10.049 1.99925 9.74796 2.25635 9.52175C2.51344 9.29553 2.86911 9.1627 3.2451 9.15248C3.6211 9.14226 3.98662 9.25549 4.26127 9.46725C4.53591 9.67901 4.69717 9.97196 4.70958 10.2817L5.27666 24.4226C5.3049 25.0262 5.61605 25.5974 6.14475 26.0161C6.67346 26.4348 7.37859 26.6685 8.11205 26.6681H18.8865C19.6209 26.6685 20.3269 26.4342 20.8557 26.0144C21.3846 25.5947 21.6951 25.0224 21.7219 24.4179L22.289 10.2817C22.3014 9.97196 22.4627 9.67901 22.7373 9.46725C23.012 9.25549 23.3775 9.14226 23.7535 9.15248C24.1295 9.1627 24.4851 9.29553 24.7422 9.52175C24.9993 9.74796 25.1368 10.049 25.1244 10.3587ZM27 5.65404C27 5.96373 26.8506 6.26075 26.5848 6.47973C26.3189 6.69872 25.9583 6.82174 25.5823 6.82174H1.41769C1.0417 6.82174 0.681102 6.69872 0.415233 6.47973C0.149363 6.26075 0 5.96373 0 5.65404C0 5.34435 0.149363 5.04734 0.415233 4.82835C0.681102 4.60936 1.0417 4.48634 1.41769 4.48634H5.81255C6.26174 4.48733 6.69532 4.35064 7.0289 4.10286C7.36249 3.85507 7.57222 3.51393 7.61727 3.14581C7.72189 2.28227 8.21308 1.48175 8.99512 0.900204C9.77717 0.31866 10.7941 -0.00224586 11.8477 1.18322e-05H15.1509C16.2045 -0.00224586 17.2214 0.31866 18.0035 0.900204C18.7855 1.48175 19.2767 2.28227 19.3813 3.14581C19.4264 3.51393 19.6361 3.85507 19.9697 4.10286C20.3033 4.35064 20.7368 4.48733 21.186 4.48634H25.5809C25.9569 4.48634 26.3175 4.60936 26.5833 4.82835C26.8492 5.04734 26.9986 5.34435 26.9986 5.65404H27ZM10.0784 4.48634H16.923C16.7367 4.13572 16.6149 3.76421 16.5615 3.38402C16.5264 3.09619 16.3628 2.82935 16.1025 2.63519C15.8421 2.44102 15.5035 2.33337 15.1523 2.33309H11.8491C11.4979 2.33337 11.1593 2.44102 10.899 2.63519C10.6386 2.82935 10.475 3.09619 10.4399 3.38402C10.3861 3.76427 10.2652 4.13579 10.0784 4.48634ZM11.506 22.1782V12.2352C11.506 11.9255 11.3566 11.6285 11.0908 11.4095C10.8249 11.1905 10.4643 11.0675 10.0883 11.0675C9.71232 11.0675 9.35172 11.1905 9.08586 11.4095C8.81999 11.6285 8.67062 11.9255 8.67062 12.2352V22.1829C8.67062 22.4926 8.81999 22.7896 9.08586 23.0086C9.35172 23.2276 9.71232 23.3506 10.0883 23.3506C10.4643 23.3506 10.8249 23.2276 11.0908 23.0086C11.3566 22.7896 11.506 22.4926 11.506 22.1829V22.1782ZM18.3308 22.1782V12.2352C18.3308 11.9255 18.1814 11.6285 17.9156 11.4095C17.6497 11.1905 17.2891 11.0675 16.9131 11.0675C16.5371 11.0675 16.1765 11.1905 15.9106 11.4095C15.6448 11.6285 15.4954 11.9255 15.4954 12.2352V22.1829C15.4954 22.4926 15.6448 22.7896 15.9106 23.0086C16.1765 23.2276 16.5371 23.3506 16.9131 23.3506C17.2891 23.3506 17.6497 23.2276 17.9156 23.0086C18.1814 22.7896 18.3308 22.4926 18.3308 22.1829V22.1782Z" fill="#F55B5B"/>
</svg>
