<svg width="28" height="29" viewBox="0 0 28 29" fill="none" xmlns="http://www.w3.org/2000/svg">
<path d="M10.7833 11.291L9.15332 16.9205C9.0149 17.3993 9.14136 17.9188 9.48273 18.2719C9.73224 18.5303 10.0676 18.6702 10.4107 18.6702C10.5367 18.6702 10.6636 18.6516 10.7875 18.6126L16.2234 16.9249C16.4315 16.8603 16.6212 16.7435 16.7745 16.5842L26.7405 6.26234C26.9866 6.00745 27.125 5.66141 27.125 5.30121C27.125 4.94101 26.9866 4.59497 26.7405 4.34009L22.9341 0.398256C22.4214 -0.132752 21.5909 -0.132752 21.0782 0.398256L11.1127 10.7201C10.9589 10.8794 10.8461 11.075 10.7833 11.291ZM13.2028 12.3999L22.0062 3.28162L23.9561 5.30121L15.1527 14.4195L12.3679 15.2841L13.2028 12.3999Z" fill="#17A8E6"/>
<path d="M25.8125 13.2344C25.0875 13.2344 24.5 13.8433 24.5 14.5938V23.6563C24.5 24.9059 23.5186 25.9219 22.3125 25.9219H4.8125C3.60638 25.9219 2.625 24.9059 2.625 23.6563V5.53125C2.625 4.28161 3.60638 3.26563 4.8125 3.26563H13.5625C14.2875 3.26563 14.875 2.65673 14.875 1.90625C14.875 1.15577 14.2875 0.546875 13.5625 0.546875H4.8125C2.15888 0.546875 0 2.78329 0 5.53125V23.6563C0 26.4042 2.15888 28.6406 4.8125 28.6406H22.3125C24.9661 28.6406 27.125 26.4042 27.125 23.6563V14.5938C27.125 13.8433 26.5375 13.2344 25.8125 13.2344Z" fill="#17A8E6"/>
</svg>
